<?xml version="1.0" standalone="no"?><!DOCTYPE svg PUBLIC "-//W3C//DTD SVG 1.1//EN" "http://www.w3.org/Graphics/SVG/1.1/DTD/svg11.dtd"><svg t="1758206044193" class="icon" viewBox="0 0 1035 1024" version="1.1" xmlns="http://www.w3.org/2000/svg" p-id="3174" data-spm-anchor-id="a313x.search_index.0.i1.54d03a81kqeNVn" xmlns:xlink="http://www.w3.org/1999/xlink" width="202.1484375" height="200"><path d="M359.75813 10.221165h-261.581126A88.224791 88.224791 0 0 0 10.153947 98.244222v261.581126a88.224791 88.224791 0 0 0 88.023057 88.023058h261.581126a87.417857 87.417857 0 0 0 62.066679-25.82189 87.417857 87.417857 0 0 0 25.82189-62.066679v-261.581126A88.35928 88.35928 0 0 0 359.623641 10.355654z m45.457286 349.671428a45.255552 45.255552 0 0 1-13.448901 32.075629 45.255552 45.255552 0 0 1-32.075629 13.448901h-261.581126a45.457286 45.457286 0 0 1-45.457286-45.457286v-261.581126a45.457286 45.457286 0 0 1 45.457286-45.457285h261.581126a45.659019 45.659019 0 0 1 45.457285 45.457285v261.581126z m237.440348 88.023057h261.513882a88.35928 88.35928 0 0 0 88.023057-88.023057V98.311467A88.35928 88.35928 0 0 0 904.169646 10.288409h-261.581126A88.224791 88.224791 0 0 0 554.565462 98.311467v261.581126a88.224791 88.224791 0 0 0 88.023058 88.023057z m-45.457285-349.671428a45.457286 45.457286 0 0 1 45.457285-45.457285h261.513882a45.659019 45.659019 0 0 1 45.457285 45.457285v261.581126a45.659019 45.659019 0 0 1-45.457285 45.457286h-261.581126a45.457286 45.457286 0 0 1-45.457286-45.457286z m-237.373104 476.360076h-261.581126a87.417857 87.417857 0 0 0-62.066679 25.82189 87.417857 87.417857 0 0 0-25.82189 62.066679v261.581126a88.35928 88.35928 0 0 0 88.023058 88.023057h261.581126A88.224791 88.224791 0 0 0 447.982921 924.073993V662.492867a88.35928 88.35928 0 0 0-88.023057-88.023058z m45.457285 349.671428a45.457286 45.457286 0 0 1-45.457285 45.457286h-261.581126a45.591775 45.591775 0 0 1-45.457286-45.457286v-261.581126a45.255552 45.255552 0 0 1 13.448901-32.075629 45.255552 45.255552 0 0 1 32.075629-13.448901h261.581126a45.659019 45.659019 0 0 1 45.457286 45.457286z" fill="#D3D5D9" p-id="3175"></path><path d="M359.75813 0.134489a98.445956 98.445956 0 0 1 98.109734 98.109733v261.581126a98.445956 98.445956 0 0 1-98.109734 98.109733h-261.581126A98.311467 98.311467 0 0 1 0.067271 359.825348v-261.581126A98.311467 98.311467 0 0 1 98.177004 0.134489z m0 437.559996a78.272604 78.272604 0 0 0 77.936382-77.936381v-261.581126A78.272604 78.272604 0 0 0 359.75813 20.240596h-261.581126A78.138115 78.138115 0 0 0 20.240623 98.176978v261.581126a78.138115 78.138115 0 0 0 77.936381 77.936381zM642.58852 0.134489h261.581126a98.445956 98.445956 0 0 1 98.109733 98.109733v261.581126a98.445956 98.445956 0 0 1-98.109733 98.109733H642.655764a98.311467 98.311467 0 0 1-98.445956-98.176977v-261.581126A98.311467 98.311467 0 0 1 642.319542 0.067245z m261.581126 437.559996a78.272604 78.272604 0 0 0 77.936381-77.936381v-261.581126A78.272604 78.272604 0 0 0 904.169646 20.240596h-261.581126a78.138115 78.138115 0 0 0-78.20536 78.003626v261.581126A78.138115 78.138115 0 0 0 642.319542 437.76173zM98.244249 42.700261h261.581126a55.67845 55.67845 0 0 1 55.543961 55.543961v261.581126a55.543961 55.543961 0 0 1-55.543961 55.543962h-261.581126a55.543961 55.543961 0 0 1-55.543962-55.543962v-261.581126a55.543961 55.543961 0 0 1 55.543962-55.543961z m296.884491 317.057843v-261.581126a35.572343 35.572343 0 0 0-35.303365-35.37061h-261.581126a35.034387 35.034387 0 0 0-24.947712 10.355654 35.437854 35.437854 0 0 0-10.422898 25.014956v261.581126a34.967143 34.967143 0 0 0 10.355654 24.947711 35.437854 35.437854 0 0 0 25.014956 10.422898h261.581126a35.37061 35.37061 0 0 0 35.37061-35.370609zM642.655764 42.700261h261.513882a55.745695 55.745695 0 0 1 55.543961 55.543961v261.581126a55.745695 55.745695 0 0 1-55.543961 55.543962h-261.581126a55.543961 55.543961 0 0 1-55.543962-55.543962v-261.581126a55.543961 55.543961 0 0 1 55.543962-55.543961z m261.581126 352.428452a35.572343 35.572343 0 0 0 35.37061-35.370609v-261.581126a35.572343 35.572343 0 0 0-35.303365-35.37061H642.655764a35.034387 35.034387 0 0 0-24.947711 10.355654 35.437854 35.437854 0 0 0-10.422899 25.014956v261.581126a34.967143 34.967143 0 0 0 10.355654 24.947711 35.437854 35.437854 0 0 0 25.014956 10.422898zM98.244249 564.517622h261.581126a98.445956 98.445956 0 0 1 98.109733 98.109734v261.581126a98.311467 98.311467 0 0 1-98.109733 98.109733h-261.581126A98.445956 98.445956 0 0 1 0.134516 924.208482v-261.581126a98.445956 98.445956 0 0 1 98.109733-98.109734z m261.581126 437.559997a78.138115 78.138115 0 0 0 77.936381-77.936382v-261.581126a78.272604 78.272604 0 0 0-78.003626-77.869137h-261.581126A78.272604 78.272604 0 0 0 20.240623 662.627356v261.581126a78.272604 78.272604 0 0 0 77.936381 77.936381z m-261.581126-394.994225h261.581126a55.745695 55.745695 0 0 1 55.543961 55.543962v261.581126a55.543961 55.543961 0 0 1-55.543961 55.543961h-261.581126a55.67845 55.67845 0 0 1-55.543962-55.543961v-261.581126a55.67845 55.67845 0 0 1 16.273171-39.203547 55.140494 55.140494 0 0 1 39.270791-16.340415z m261.581126 352.428453a35.034387 35.034387 0 0 0 24.947711-10.355654 35.437854 35.437854 0 0 0 10.422899-25.014956v-261.581126a35.572343 35.572343 0 0 0-35.303366-35.37061H98.311493a35.034387 35.034387 0 0 0-24.947711 10.355654 35.505099 35.505099 0 0 0-10.422898 25.014956v261.581126a35.572343 35.572343 0 0 0 35.303365 35.37061z" fill="#D3D5D9" p-id="3176" data-spm-anchor-id="a313x.search_index.0.i4.54d03a81kqeNVn" class=""></path><path d="M1016.333481 957.629001l-60.520055-40.346703a220.494733 220.494733 0 1 0-338.307107 32.075629 220.225755 220.225755 0 0 0 310.938593 0.672445l64.218503 42.969239a21.249264 21.249264 0 0 0 23.602821-35.236121z m-242.954398 13.448901a177.928961 177.928961 0 1 1 125.814469-52.114492 177.45825 177.45825 0 0 1-125.814469 52.114492z" fill="#22E2E2" p-id="3177" data-spm-anchor-id="a313x.search_index.0.i5.54d03a81kqeNVn" class="selected"></path><path d="M773.379083 1023.999328a230.648653 230.648653 0 1 1 196.286711-109.675789l52.24898 34.967143a31.335939 31.335939 0 0 1-17.416326 57.292319 31.20145 31.20145 0 0 1-17.416327-5.312316l-57.494052-38.463857a228.631318 228.631318 0 0 1-156.208986 61.1925z m0-440.989467a210.408057 210.408057 0 1 0 147.937911 359.825349l5.850272-5.783028 71.077443 47.541865a11.162588 11.162588 0 0 0 12.372989-18.492239l-68.992863-46.12973 5.715783-8.405563a210.408057 210.408057 0 0 0-174.096024-328.489409z m0 398.423695a188.284615 188.284615 0 1 1 132.942387-55.07325 186.87248 186.87248 0 0 1-132.942387 55.07325z m0-355.857923a167.775041 167.775041 0 1 0 118.686552 49.088489 166.833618 166.833618 0 0 0-118.686552-49.088489z" fill="#22E2E2" p-id="3178" data-spm-anchor-id="a313x.search_index.0.i2.54d03a81kqeNVn" class=""></path></svg>